<?xml version="1.0" encoding="iso-8859-1"?>
<!-- Generator: Adobe Illustrator 19.0.0, SVG Export Plug-In . SVG Version: 6.00 Build 0)  -->
<svg version="1.1" id="Capa_1" xmlns="http://www.w3.org/2000/svg" xmlns:xlink="http://www.w3.org/1999/xlink" x="0px" y="0px"
	 viewBox="0 0 512 512" style="enable-background:new 0 0 512 512;" xml:space="preserve">
<rect x="178.511" y="74.782" transform="matrix(-0.7071 -0.7071 0.7071 -0.7071 105.3017 680.447)" style="fill:#AD8761;" width="30.13" height="487.266"/>
<path style="fill:#936C4C;" d="M355.203,135.493l-22.277,22.278c-5.476,12.014-8.36,27.477-8.36,44.935
	c0,1.949,0.084,3.889,0.215,5.82l51.727-51.728L355.203,135.493z"/>
<polygon style="fill:#B0BEC5;" points="499.133,12.868 385.504,55.479 383.373,97.38 350.231,130.521 381.48,161.77 
	414.621,128.628 456.522,126.497 "/>
<polygon style="fill:#90A4AE;" points="366.917,147.203 381.48,161.766 414.623,128.632 456.525,126.493 499.129,12.871 "/>
<path style="fill:#ED593B;" d="M435.715,254.427c0,0-13.84-3.164-29.478-10.827c-5.805-2.832-11.861-6.287-17.546-10.435
	c3.555-9.441,6.177-19.977,6.177-30.462c0-15.306-2.501-27.79-6.599-36.719c7.924,4.55,16.532,11.932,25.038,22.186
	c0.362,0.432,0.723,0.874,1.065,1.326C434.108,214.554,435.715,254.427,435.715,254.427z"/>
<path style="fill:#E23423;" d="M414.955,202.703c0,14.563-3.827,28.734-8.718,40.897c-5.805-2.832-11.861-6.287-17.546-10.435
	c3.555-9.441,6.177-19.977,6.177-30.462c0-15.306-2.501-27.79-6.599-36.719c7.924,4.55,16.532,11.932,25.038,22.186
	c0.362,0.432,0.723,0.874,1.065,1.326C414.754,193.745,414.955,198.153,414.955,202.703z"/>
<path style="fill:#ED593B;" d="M369.761,267.988c0,0-25.109-32.833-25.109-65.283s11.242-52.226,25.109-52.226
	c13.867,0,25.109,19.777,25.109,52.226S369.761,267.988,369.761,267.988z"/>
<path d="M417.9,136.007l43.942-2.243L512,0L378.236,50.157L376.002,94.1l-36.421,36.421l4.972,4.972L0,480.046L31.954,512
	l305.289-305.287c1.83,33.161,25.487,64.482,26.533,65.85l5.984,7.825l5.984-7.825c0.619-0.81,9.155-12.109,16.404-28.066
	c20.004,12.16,40.89,17.045,41.883,17.272l9.605,2.199l-0.398-9.846c-0.072-1.79-2.024-44.154-24.134-70.769
	c-8.035-9.672-16.652-17.463-25.053-22.677c-0.093-0.184-0.188-0.367-0.283-0.547L417.9,136.007z M390.754,100.654l2.026-39.861
	l93.479-35.051l-35.051,93.48l-39.861,2.035l-26.977,26.966c-3.232-2.585-6.826-4.267-10.718-4.938l-12.764-12.765L390.754,100.654z
	 M338.415,184.235L31.954,490.695l-10.65-10.65l333.9-333.899l1.158,1.158C347.398,153.68,341.014,166.728,338.415,184.235z
	 M369.753,254.465c-6.98-11.349-17.568-31.846-17.568-51.76c0-27.975,8.936-44.694,17.576-44.694
	c8.64,0,17.576,16.718,17.576,44.694C387.337,222.556,376.735,243.094,369.753,254.465z M407.517,192.982
	c12.684,15.268,17.652,37.84,19.549,51.046c-7.823-2.65-18.961-7.129-29.363-13.822c2.79-8.684,4.7-18.06,4.7-27.5
	c0-5.866-0.36-11.408-1.036-16.589C403.434,188.252,405.491,190.541,407.517,192.982z"/>
<g>
	
		<rect x="425.216" y="56.256" transform="matrix(-0.7071 -0.7071 0.7071 -0.7071 682.3969 442.0421)" style="fill:#FFFFFF;" width="15.065" height="46.872"/>
	<rect x="362.45" y="192.685" style="fill:#FFFFFF;" width="15.065" height="15.065"/>
</g>
<g>
</g>
<g>
</g>
<g>
</g>
<g>
</g>
<g>
</g>
<g>
</g>
<g>
</g>
<g>
</g>
<g>
</g>
<g>
</g>
<g>
</g>
<g>
</g>
<g>
</g>
<g>
</g>
<g>
</g>
</svg>
